<svg width="533" height="612" viewBox="0 0 533 612" fill="none" xmlns="http://www.w3.org/2000/svg">
<circle cx="283" cy="362" r="250" fill="white"/>
<g clip-path="url(#clip0)">
<path d="M394.337 299.045V488.516C397.509 487.499 400.916 486.932 404.42 486.932C407.945 486.932 411.332 487.499 414.523 488.516V299.045C414.523 293.489 409.961 288.951 404.42 288.951C401.64 288.951 399.114 290.085 397.293 291.924C395.472 293.724 394.337 296.248 394.337 299.045Z" fill="#39C9FE" fill-opacity="0.5"/>
<path d="M394.336 332.323H414.542V338.544H394.336V332.323Z" fill="#2A5B5B" fill-opacity="0.7"/>
<path d="M394.336 360.103H414.542V366.324H394.336V360.103Z" fill="#2A5B5B" fill-opacity="0.7"/>
<path d="M394.336 387.863H414.542V394.084H394.336V387.863Z" fill="#2A5B5B" fill-opacity="0.7"/>
<path d="M394.336 415.623H414.542V421.844H394.336V415.623Z" fill="#2A5B5B" fill-opacity="0.7"/>
<path d="M394.336 443.384H414.542V449.605H394.336V443.384Z" fill="#2A5B5B" fill-opacity="0.7"/>
<path d="M394.336 471.144H414.542V477.365H394.336V471.144Z" fill="#2A5B5B" fill-opacity="0.7"/>
<path d="M434.513 533.316C436.353 529.208 437.411 524.669 437.411 519.857C437.411 505.184 427.817 492.762 414.561 488.497C411.37 487.479 407.982 486.912 404.458 486.912C400.953 486.912 397.546 487.479 394.375 488.497C381.119 492.742 371.525 505.165 371.525 519.857C371.525 524.65 372.563 529.188 374.423 533.316H346.502C345.504 528.993 344.936 524.493 344.936 519.857C344.936 490.434 366.297 465.999 394.394 461.206C397.664 460.639 401.051 460.345 404.478 460.345C407.924 460.345 411.291 460.639 414.581 461.206C442.639 465.999 464 490.434 464 519.857C464 524.493 463.432 528.973 462.434 533.316H434.513Z" fill="#72DED1"/>
<path d="M393.65 473.863C393.65 479.83 398.486 484.643 404.438 484.643C410.39 484.643 415.227 479.811 415.227 473.863C415.227 467.916 410.39 463.084 404.438 463.084C398.486 463.084 393.65 467.916 393.65 473.863Z" fill="#39C9FE"/>
<path d="M55.6057 151.401V171.453H94.8239C98.2895 171.453 101.598 172.099 104.653 173.272C111.134 175.757 116.42 180.648 119.436 186.849C120.395 188.786 121.119 190.879 121.589 193.071C121.981 194.929 122.216 196.866 122.216 198.842V251.487C122.216 254.108 122.431 256.671 122.842 259.175C124.135 266.922 127.267 274.024 131.83 280.049C133.239 281.908 134.766 283.649 136.431 285.253C141.913 290.672 148.707 294.761 156.285 296.971C158.301 297.578 160.377 298.028 162.511 298.36C164.861 298.713 167.249 298.908 169.697 298.908H244.902V278.856H169.697C167.21 278.856 164.802 278.523 162.511 277.897C160.318 277.31 158.243 276.45 156.285 275.354C151.566 272.713 147.709 268.702 145.261 263.89C143.773 260.994 142.794 257.806 142.442 254.421C142.344 253.463 142.285 252.484 142.285 251.467V198.822C142.285 196.866 142.168 194.91 141.933 193.012C141.678 190.879 141.267 188.825 140.738 186.791C138.467 178.066 133.748 170.338 127.385 164.352C125.662 162.689 123.821 161.182 121.844 159.832C114.188 154.492 104.888 151.381 94.8631 151.381H55.6057V151.401Z" fill="#39C9FE" fill-opacity="0.5"/>
<path d="M177.137 278.856H183.363V298.908H177.137V278.856Z" fill="#2A5B5B" fill-opacity="0.7"/>
<path d="M156.284 275.354V296.991C158.301 297.598 160.377 298.047 162.511 298.38V277.917C160.318 277.31 158.223 276.45 156.284 275.354Z" fill="#2A5B5B" fill-opacity="0.7"/>
<path d="M131.83 280.03C133.24 281.888 134.767 283.629 136.431 285.233L145.281 263.87C143.793 260.975 142.814 257.786 142.462 254.402L131.83 280.03Z" fill="#2A5B5B" fill-opacity="0.7"/>
<path d="M122.216 250.998V251.487C122.216 254.108 122.431 256.671 122.842 259.175L142.285 239.729V230.906L122.216 250.998Z" fill="#2A5B5B" fill-opacity="0.7"/>
<path d="M122.216 226.211V232.98L142.285 224.626V217.877L122.216 226.211Z" fill="#2A5B5B" fill-opacity="0.7"/>
<path d="M122.216 205.826H142.285V212.047H122.216V205.826Z" fill="#2A5B5B" fill-opacity="0.7"/>
<path d="M119.455 186.849C120.415 188.786 121.139 190.879 121.609 193.071L141.933 193.031C141.678 190.899 141.267 188.845 140.738 186.81L119.455 186.849Z" fill="#2A5B5B" fill-opacity="0.7"/>
<path d="M92.2784 171.453H94.8238C98.2894 171.453 101.598 172.099 104.653 173.273L127.346 164.371C125.623 162.708 123.782 161.202 121.805 159.852L92.2784 171.453Z" fill="#2A5B5B" fill-opacity="0.7"/>
<path d="M62.8893 171.453H72.0918L93.7666 151.401H84.6033L62.8893 171.453Z" fill="#2A5B5B" fill-opacity="0.7"/>
<path d="M-0.00109863 189.901C4.11064 191.74 8.65311 192.797 13.4697 192.797C28.1545 192.797 40.5876 183.211 44.856 169.966C45.8742 166.778 46.442 163.393 46.442 159.872C46.442 156.37 45.8742 152.966 44.856 149.797C40.6072 136.552 28.1545 126.966 13.4697 126.966C8.67269 126.966 4.13022 128.003 -0.00109863 129.862V101.925C4.32602 100.927 8.82933 100.36 13.4697 100.36C42.9176 100.36 67.3727 121.704 72.1697 149.777C72.7375 153.044 73.0312 156.429 73.0312 159.852C73.0312 163.295 72.7375 166.66 72.1697 169.947C67.3727 198.02 42.9176 219.364 13.4697 219.364C8.82933 219.364 4.3456 218.796 -0.00109863 217.799V189.901Z" fill="#72DED1"/>
<path d="M59.4821 170.651C53.5238 170.651 48.6937 165.825 48.6937 159.872C48.6937 153.918 53.5238 149.092 59.4821 149.092C65.4403 149.092 70.2705 153.918 70.2705 159.872C70.2705 165.825 65.4403 170.651 59.4821 170.651Z" fill="#39C9FE"/>
</g>
<path d="M372.006 249.324L200.628 249.166C192.999 249.159 186.763 242.912 186.77 235.284C186.777 227.656 193.025 221.421 200.654 221.428L372.032 221.586C379.661 221.593 385.897 227.84 385.89 235.468C385.883 243.096 379.635 249.331 372.006 249.324Z" fill="#383838"/>
<path d="M413.666 198.51C413.65 216.308 399.072 230.858 381.272 230.84L193.25 230.668C175.45 230.652 160.898 216.076 160.916 198.278L160.956 155.234C160.988 122.801 187.551 96.2913 219.986 96.32L354.788 96.4437C387.225 96.4746 413.737 123.035 413.708 155.465L413.666 198.51Z" fill="#39C9FE"/>
<path d="M191.972 238.063L382.529 238.239C399.633 238.255 413.614 252.26 413.598 269.361L413.573 294.359C413.509 363.857 356.527 483.538 287.021 483.475C217.515 483.412 160.757 363.625 160.821 294.128L160.843 269.13C160.861 252.026 174.868 238.047 191.972 238.063Z" fill="#39C9FE"/>
<path d="M355.03 195.936L219.911 196.542C205.025 196.609 192.902 184.596 192.837 169.711C192.769 154.827 204.784 142.705 219.671 142.64L354.79 142.034C369.676 141.967 381.799 153.98 381.864 168.865C381.932 183.749 369.917 195.871 355.03 195.936Z" fill="#383838"/>
<path d="M246.441 169.609C246.483 175.98 241.353 181.18 234.979 181.223C228.607 181.265 223.407 176.136 223.364 169.762C223.322 163.392 228.452 158.192 234.826 158.149C241.198 158.109 246.398 163.238 246.441 169.609Z" fill="white"/>
<path d="M348.958 168.922C349.001 175.293 343.87 180.493 337.496 180.536C331.125 180.578 325.925 175.449 325.882 169.076C325.839 162.705 330.97 157.505 337.344 157.462C343.715 157.422 348.916 162.552 348.958 168.922Z" fill="white"/>
<path d="M178.55 69.3971C178.546 72.9319 175.677 75.7975 172.142 75.7937C168.607 75.7898 165.741 72.9213 165.745 69.3866C165.749 65.8518 168.618 62.9862 172.153 62.9901C175.688 62.9939 178.552 65.8625 178.55 69.3971Z" fill="url(#paint0_linear)"/>
<path d="M172.096 122.293C172.096 122.293 187.385 124.263 195.767 104.313L191.71 95.9332C190.329 93.0808 186.885 91.9054 184.047 93.3216L175.266 97.7024C173.336 98.6652 172.117 100.634 172.116 102.79L172.096 122.293Z" fill="#383838"/>
<path d="M173.413 72.3521C173.245 71.9623 172.661 72.1388 172.737 72.5558L177.98 100.658C178.1 101.299 178.531 101.835 179.131 102.087C179.732 102.34 180.416 102.276 180.958 101.915L182.587 100.831C183.943 99.929 184.46 98.1906 183.821 96.6943L173.413 72.3521Z" fill="url(#paint1_linear)"/>
<path d="M396.246 69.5974C396.242 73.1322 399.106 76.0031 402.643 76.0045C406.179 76.0083 409.05 73.145 409.051 69.608C409.055 66.0732 406.191 63.2023 402.654 63.2009C399.119 63.1994 396.25 66.0627 396.246 69.5974Z" fill="url(#paint2_linear)"/>
<path d="M402.6 122.503C402.6 122.503 387.309 124.446 378.965 104.478L383.038 96.1057C384.426 93.256 387.872 92.0872 390.705 93.5071L399.478 97.9035C401.405 98.869 402.62 100.84 402.619 102.995L402.6 122.503Z" fill="#383838"/>
<path d="M402.051 72.768L396.779 100.74C396.654 101.405 396.202 101.964 395.577 102.227C394.953 102.491 394.237 102.421 393.673 102.045L392.15 101.026C390.798 100.123 390.28 98.3823 390.924 96.8885L401.378 72.5625C401.543 72.171 402.131 72.3506 402.051 72.768Z" fill="url(#paint3_linear)"/>
<defs>
<linearGradient id="paint0_linear" x1="165.75" y1="69.6881" x2="178.542" y2="69.0949" gradientUnits="userSpaceOnUse">
<stop stop-color="#4F52FF"/>
<stop offset="1" stop-color="#4042E2"/>
</linearGradient>
<linearGradient id="paint1_linear" x1="173.419" y1="87.3324" x2="183.579" y2="86.8612" gradientUnits="userSpaceOnUse">
<stop stop-color="#4F52FF"/>
<stop offset="1" stop-color="#4042E2"/>
</linearGradient>
<linearGradient id="paint2_linear" x1="396.253" y1="69.9002" x2="409.045" y2="69.307" gradientUnits="userSpaceOnUse">
<stop stop-color="#4F52FF"/>
<stop offset="1" stop-color="#4042E2"/>
</linearGradient>
<linearGradient id="paint3_linear" x1="390.159" y1="87.7406" x2="402.73" y2="87.1576" gradientUnits="userSpaceOnUse">
<stop stop-color="#4F52FF"/>
<stop offset="1" stop-color="#4042E2"/>
</linearGradient>
<clipPath id="clip0">
<rect width="464" height="612" fill="white" transform="matrix(-1 0 0 1 464 0)"/>
</clipPath>
</defs>
</svg>
